<svg width="685" height="341" xmlns="http://www.w3.org/2000/svg" xmlns:xlink="http://www.w3.org/1999/xlink" xml:space="preserve" overflow="hidden"><defs><filter id="fx0" x="-10%" y="-10%" width="120%" height="120%" filterUnits="userSpaceOnUse" primitiveUnits="userSpaceOnUse"><feComponentTransfer color-interpolation-filters="sRGB"><feFuncR type="discrete" tableValues="0 0"/><feFuncG type="discrete" tableValues="0 0"/><feFuncB type="discrete" tableValues="0 0"/><feFuncA type="linear" slope="0.4" intercept="0"/></feComponentTransfer><feGaussianBlur stdDeviation="1.65137 1.65137"/></filter><filter id="fx1" x="-10%" y="-10%" width="120%" height="120%" filterUnits="userSpaceOnUse" primitiveUnits="userSpaceOnUse"><feComponentTransfer color-interpolation-filters="sRGB"><feFuncR type="discrete" tableValues="0 0"/><feFuncG type="discrete" tableValues="0 0"/><feFuncB type="discrete" tableValues="0 0"/><feFuncA type="linear" slope="0.4" intercept="0"/></feComponentTransfer><feGaussianBlur stdDeviation="1.65137 1.65137"/></filter><filter id="fx2" x="-10%" y="-10%" width="120%" height="120%" filterUnits="userSpaceOnUse" primitiveUnits="userSpaceOnUse"><feComponentTransfer color-interpolation-filters="sRGB"><feFuncR type="discrete" tableValues="0 0"/><feFuncG type="discrete" tableValues="0 0"/><feFuncB type="discrete" tableValues="0 0"/><feFuncA type="linear" slope="0.4" intercept="0"/></feComponentTransfer><feGaussianBlur stdDeviation="1.65137 1.65137"/></filter><filter id="fx3" x="-10%" y="-10%" width="120%" height="120%" filterUnits="userSpaceOnUse" primitiveUnits="userSpaceOnUse"><feComponentTransfer color-interpolation-filters="sRGB"><feFuncR type="discrete" tableValues="0 0"/><feFuncG type="discrete" tableValues="0 0"/><feFuncB type="discrete" tableValues="0 0"/><feFuncA type="linear" slope="0.4" intercept="0"/></feComponentTransfer><feGaussianBlur stdDeviation="1.65137 1.65137"/></filter><filter id="fx4" x="-10%" y="-10%" width="120%" height="120%" filterUnits="userSpaceOnUse" primitiveUnits="userSpaceOnUse"><feComponentTransfer color-interpolation-filters="sRGB"><feFuncR type="discrete" tableValues="0 0"/><feFuncG type="discrete" tableValues="0 0"/><feFuncB type="discrete" tableValues="0 0"/><feFuncA type="linear" slope="0.4" intercept="0"/></feComponentTransfer><feGaussianBlur stdDeviation="1.65137 1.65137"/></filter><filter id="fx5" x="-10%" y="-10%" width="120%" height="120%" filterUnits="userSpaceOnUse" primitiveUnits="userSpaceOnUse"><feComponentTransfer color-interpolation-filters="sRGB"><feFuncR type="discrete" tableValues="0 0"/><feFuncG type="discrete" tableValues="0 0"/><feFuncB type="discrete" tableValues="0 0"/><feFuncA type="linear" slope="0.4" intercept="0"/></feComponentTransfer><feGaussianBlur stdDeviation="1.65137 1.65137"/></filter><clipPath id="clip6"><rect x="1540" y="146" width="685" height="341"/></clipPath><clipPath id="clip7"><rect x="47" y="39" width="53" height="67"/></clipPath><clipPath id="clip8"><rect x="0" y="0" width="145" height="166"/></clipPath><clipPath id="clip9"><rect x="45" y="39" width="235" height="83"/></clipPath><clipPath id="clip10"><rect x="0" y="0" width="342" height="166"/></clipPath><clipPath id="clip11"><rect x="47" y="39" width="69" height="67"/></clipPath><clipPath id="clip12"><rect x="0" y="0" width="164" height="166"/></clipPath><clipPath id="clip13"><rect x="45" y="39" width="271" height="69"/></clipPath><clipPath id="clip14"><rect x="0" y="0" width="378" height="166"/></clipPath><clipPath id="clip15"><rect x="47" y="39" width="59" height="67"/></clipPath><clipPath id="clip16"><rect x="0" y="0" width="152" height="166"/></clipPath><clipPath id="clip17"><rect x="43" y="39" width="279" height="83"/></clipPath><clipPath id="clip18"><rect x="0" y="0" width="367" height="166"/></clipPath></defs><g clip-path="url(#clip6)" transform="translate(-1540 -146)"><path d="M1549.5 422.5 1607.5 190.5 1797.5 190.5 1739.5 422.5Z" stroke="#000000" stroke-width="6.875" stroke-miterlimit="8" fill="#A28C5E" fill-rule="evenodd"/><g clip-path="url(#clip7)" filter="url(#fx0)" transform="translate(1782 145)"><g clip-path="url(#clip8)"><path d="M43.4507-36.1792C43.4507-30.5474 41.8586-26.3888 38.6743-23.7036 35.4901-21.0184 30.583-19.6758 23.9531-19.6758L16.0044-19.6758 16.0044 0 5.48926 0 5.48926-52.2549 23.9531-52.2549C30.6781-52.2549 35.6089-50.9004 38.7456-48.1914 41.8823-45.4824 43.4507-41.4783 43.4507-36.1792ZM32.5435-36.001C32.5435-38.3773 31.8306-40.207 30.4048-41.4902 28.979-42.7734 26.769-43.415 23.7749-43.415L16.0044-43.415 16.0044-28.5156 23.7749-28.5156C26.9354-28.5156 29.1869-29.1513 30.5295-30.4226 31.8721-31.6939 32.5435-33.5534 32.5435-36.001Z" fill="#A28C5E" transform="matrix(1 0 0 1 49.5029 99)"/></g></g><text fill="#A28C5E" font-family="Arial Nova,Arial Nova_MSFontService,sans-serif" font-weight="700" font-size="73" transform="matrix(1 0 0 1 1829.66 243)">P</text><g clip-path="url(#clip9)" filter="url(#fx1)" transform="translate(1827 145)"><g clip-path="url(#clip10)"><path d="M2.56641-18.8916C2.56641-23.0026 3.30306-26.5433 4.77637-29.5137 6.24967-32.484 8.323-34.7534 10.9963-36.3218 13.6697-37.8901 16.7648-38.6743 20.2817-38.6743 23.8224-38.6743 26.9235-37.9139 29.585-36.3931 32.2464-34.8722 34.3197-32.6326 35.8049-29.6741 37.2901-26.7156 38.0327-23.1452 38.0327-18.9629 38.0327-14.8044 37.2842-11.234 35.7871-8.25171 34.29-5.26945 32.2048-3.00008 29.5315-1.4436 26.8582 0.112874 23.7749 0.891113 20.2817 0.891113 16.8123 0.891113 13.7469 0.136637 11.0854-1.37231 8.42399-2.88127 6.33879-5.12093 4.82983-8.09131 3.32088-11.0617 2.56641-14.6618 2.56641-18.8916ZM20.2461-33.3989C18.1074-33.3989 16.2004-32.8464 14.5251-31.7415 12.8499-30.6365 11.531-28.9968 10.5686-26.8225 9.6062-24.6482 9.125-22.0046 9.125-18.8916 9.125-15.7786 9.60026-13.135 10.5508-10.9607 11.5013-8.78638 12.8142-7.14673 14.4895-6.04175 16.1648-4.93677 18.0955-4.38428 20.2817-4.38428 22.5392-4.38428 24.5116-4.95459 26.1987-6.09521 27.8859-7.23584 29.1869-8.89925 30.1018-11.0854 31.0167-13.2716 31.4741-15.8975 31.4741-18.9629 31.4741-22.0521 30.9989-24.6779 30.0483-26.8403 29.0978-29.0028 27.779-30.6365 26.0918-31.7415 24.4046-32.8464 22.4561-33.3989 20.2461-33.3989ZM52.0477 0 45.6317 0 45.6317-52.2549 52.0477-52.2549ZM72.7333-16.0044C73.47-13.9608 73.9987-12.4043 74.3195-11.335 74.6403-10.2656 75.0146-8.87549 75.4423-7.16455L75.5849-7.16455C76.0602-9.27946 76.4344-10.7825 76.7077-11.6736 76.981-12.5647 77.6285-14.4123 78.6503-17.2163L86.1713-37.8188 92.6943-37.8188 77.3671 2.81592C76.1314 6.09521 74.9433 8.63192 73.8027 10.426 72.662 12.2201 71.4382 13.4855 70.1313 14.2222 68.8243 14.9588 67.2678 15.3271 65.4618 15.3271 64.7965 15.3271 63.9291 15.2499 62.8598 15.0955 61.7905 14.941 60.8756 14.7806 60.1152 14.6143L61.434 9.19629C62.4321 9.5765 63.3945 9.7666 64.3212 9.7666 65.6995 9.7666 66.8342 9.42204 67.7253 8.73291 68.6164 8.04378 69.3412 7.12296 69.8996 5.97046 70.458 4.81795 70.9749 3.61198 71.4501 2.35254 71.9254 1.0931 72.2105 0.332682 72.3056 0.0712891L57.9408-37.8188 64.8559-37.8188ZM137.452-38.6743C141.492-38.6743 144.557-37.6169 146.649-35.5019 148.74-33.387 149.785-30.2978 149.785-26.2344L149.785 0 143.369 0 143.369-24.2739C143.369-27.4819 142.799-29.7632 141.658-31.1177 140.518-32.4722 138.771-33.1494 136.419-33.1494 134.708-33.1494 133.163-32.7217 131.785-31.8662 130.406-31.0107 129.313-29.68 128.505-27.874 127.698-26.068 127.294-23.8105 127.294-21.1016L127.294 0 120.878 0 120.878-24.8442C120.878-27.672 120.295-29.7632 119.131-31.1177 117.967-32.4722 116.232-33.1494 113.927-33.1494 112.263-33.1494 110.743-32.7454 109.364-31.9375 107.986-31.1296 106.881-29.8285 106.049-28.0344 105.218-26.2403 104.802-23.9294 104.802-21.1016L104.802 0 98.3858 0 98.3858-37.8188 104.374-37.8188 104.374-32.5435C107.036-36.6307 110.576-38.6743 114.996-38.6743 118.014-38.6743 120.45-38.1218 122.303-37.0168 124.157-35.9119 125.511-34.2544 126.367-32.0444 127.935-34.5158 129.587-36.2386 131.321-37.2129 133.056-38.1872 135.1-38.6743 137.452-38.6743ZM175.407-4.38428C177.831-4.38428 179.928-5.09717 181.698-6.52295 183.469-7.94873 184.698-9.83789 185.388-12.1904L191.661-11.228C190.592-7.40218 188.59-4.42586 185.655-2.29907 182.72-0.172282 179.197 0.891113 175.086 0.891113 171.474 0.891113 168.332 0.095052 165.658-1.49707 162.985-3.08919 160.924-5.35262 159.474-8.28735 158.024-11.2221 157.3-14.6618 157.3-18.6064 157.3-22.6699 158.013-26.2106 159.438-29.2285 160.864-32.2464 162.914-34.5752 165.587-36.2148 168.26-37.8545 171.403-38.6743 175.015-38.6743 178.508-38.6743 181.55-37.8961 184.14-36.3396 186.73-34.7831 188.726-32.4959 190.128-29.478 191.53-26.4601 192.231-22.8363 192.231-18.6064L192.231-17.2876 163.93-17.2876C164.072-14.5786 164.631-12.2558 165.605-10.3191 166.579-8.3824 167.904-6.9091 169.579-5.89917 171.255-4.88924 173.197-4.38428 175.407-4.38428ZM174.944-33.4346C173.043-33.4346 171.332-32.9831 169.811-32.0801 168.29-31.1771 167.037-29.9058 166.05-28.2661 165.064-26.6265 164.429-24.7254 164.143-22.563L185.459-22.563C185.079-26.0561 183.98-28.7414 182.162-30.6186 180.344-32.4959 177.938-33.4346 174.944-33.4346ZM214.62-32.1157C211.887-32.1157 209.802-31.0642 208.365-28.9612 206.927-26.8582 206.208-23.9294 206.208-20.1748L206.208 0 199.792 0 199.792-37.8188 205.78-37.8188 205.78-32.1157C207.182-34.492 208.608-36.1792 210.058-37.1772 211.507-38.1753 213.254-38.6743 215.297-38.6743 216.438-38.6743 217.501-38.5377 218.488-38.2644 219.474-37.9911 220.478-37.5456 221.5-36.9277L219.29-31.0107C217.911-31.7474 216.355-32.1157 214.62-32.1157Z" fill="#A28C5E" transform="matrix(1 0 0 1 50.3363 99)"/></g></g><text fill="#A28C5E" font-family="Arial Nova,Arial Nova_MSFontService,sans-serif" font-weight="400" font-size="73" transform="matrix(1 0 0 1 1875.49 243)">olymer </text><g clip-path="url(#clip11)" filter="url(#fx2)" transform="translate(1782 233)"><g clip-path="url(#clip12)"><path d="M42.2388-52.2549 58.1006-52.2549 58.1006 0 48.2983 0 48.2983-41.1694 36.9277 0 26.8047 0 15.2915-41.1694 15.2915 0 5.48926 0 5.48926-52.2549 21.2798-52.2549 31.9019-15.2559Z" fill="#A28C5E" transform="matrix(1 0 0 1 49.5029 99)"/></g></g><text fill="#A28C5E" font-family="Arial Nova,Arial Nova_MSFontService,sans-serif" font-weight="700" font-size="73" transform="matrix(1 0 0 1 1829.66 331)">M</text><g clip-path="url(#clip13)" filter="url(#fx3)" transform="translate(1846 233)"><g clip-path="url(#clip14)"><path d="M2.56641-18.8916C2.56641-23.0026 3.30306-26.5433 4.77637-29.5137 6.24967-32.484 8.323-34.7534 10.9963-36.3218 13.6697-37.8901 16.7648-38.6743 20.2817-38.6743 23.8224-38.6743 26.9235-37.9139 29.585-36.3931 32.2464-34.8722 34.3197-32.6326 35.8049-29.6741 37.2901-26.7156 38.0327-23.1452 38.0327-18.9629 38.0327-14.8044 37.2842-11.234 35.7871-8.25171 34.29-5.26945 32.2048-3.00008 29.5315-1.4436 26.8582 0.112874 23.7749 0.891113 20.2817 0.891113 16.8123 0.891113 13.7469 0.136637 11.0854-1.37231 8.42399-2.88127 6.33879-5.12093 4.82983-8.09131 3.32088-11.0617 2.56641-14.6618 2.56641-18.8916ZM20.2461-33.3989C18.1074-33.3989 16.2004-32.8464 14.5251-31.7415 12.8499-30.6365 11.531-28.9968 10.5686-26.8225 9.6062-24.6482 9.125-22.0046 9.125-18.8916 9.125-15.7786 9.60026-13.135 10.5508-10.9607 11.5013-8.78638 12.8142-7.14673 14.4895-6.04175 16.1648-4.93677 18.0955-4.38428 20.2817-4.38428 22.5392-4.38428 24.5116-4.95459 26.1987-6.09521 27.8859-7.23584 29.1869-8.89925 30.1018-11.0854 31.0167-13.2716 31.4741-15.8975 31.4741-18.9629 31.4741-22.0521 30.9989-24.6779 30.0483-26.8403 29.0978-29.0028 27.779-30.6365 26.0918-31.7415 24.4046-32.8464 22.4561-33.3989 20.2461-33.3989ZM52.0477 0 45.6317 0 45.6317-52.2549 52.0477-52.2549ZM77.9655-4.38428C80.3893-4.38428 82.4864-5.09717 84.2568-6.52295 86.0271-7.94873 87.2568-9.83789 87.946-12.1904L94.2194-11.228C93.1501-7.40218 91.148-4.42586 88.2133-2.29907 85.2786-0.172282 81.7557 0.891113 77.6447 0.891113 74.0327 0.891113 70.8901 0.095052 68.2167-1.49707 65.5434-3.08919 63.4819-5.35262 62.0324-8.28735 60.5828-11.2221 59.8581-14.6618 59.8581-18.6064 59.8581-22.6699 60.571-26.2106 61.9967-29.2285 63.4225-32.2464 65.4721-34.5752 68.1454-36.2148 70.8188-37.8545 73.9614-38.6743 77.5734-38.6743 81.0666-38.6743 84.1082-37.8961 86.6984-36.3396 89.2886-34.7831 91.2847-32.4959 92.6867-29.478 94.0887-26.4601 94.7897-22.8363 94.7897-18.6064L94.7897-17.2876 66.488-17.2876C66.6305-14.5786 67.189-12.2558 68.1632-10.3191 69.1375-8.3824 70.4623-6.9091 72.1376-5.89917 73.8129-4.88924 75.7555-4.38428 77.9655-4.38428ZM77.5021-33.4346C75.6011-33.4346 73.8901-32.9831 72.3693-32.0801 70.8485-31.1771 69.595-29.9058 68.6088-28.2661 67.6226-26.6265 66.987-24.7254 66.7018-22.563L88.0172-22.563C87.637-26.0561 86.538-28.7414 84.7201-30.6186 82.9023-32.4959 80.4962-33.4346 77.5021-33.4346ZM118.177-33.3989C114.446-33.3989 111.57-32.1395 109.551-29.6206 107.531-27.1017 106.521-23.5492 106.521-18.9629 106.521-16.1113 106.972-13.5865 107.875-11.3884 108.778-9.19035 110.085-7.47347 111.796-6.23779 113.507-5.00212 115.515-4.38428 117.82-4.38428 120.553-4.38428 122.798-5.22786 124.557-6.91504 126.315-8.60221 127.409-10.9191 127.836-13.8657L134.181-12.9033C133.777-10.0993 132.803-7.65763 131.258-5.57837 129.714-3.4991 127.753-1.90104 125.377-0.78418 123 0.332682 120.398 0.891113 117.571 0.891113 114.077 0.891113 111 0.0891112 108.339-1.51489 105.677-3.1189 103.616-5.40609 102.154-8.37646 100.693-11.3468 99.9622-14.84 99.9622-18.856 99.9622-23.0858 100.693-26.6859 102.154-29.6562 103.616-32.6266 105.689-34.8722 108.374-36.3931 111.06-37.9139 114.232-38.6743 117.891-38.6743 120.577-38.6743 123.024-38.205 125.234-37.2664 127.444-36.3277 129.268-34.9613 130.706-33.1672 132.143-31.3731 133.088-29.2285 133.539-26.7334L127.337-25.8066C126.743-28.2067 125.638-30.0721 124.022-31.4028 122.406-32.7336 120.458-33.3989 118.177-33.3989ZM147.009-13.0815C147.009-10.325 147.692-8.23389 149.059-6.8081 150.425-5.38232 152.38-4.66943 154.922-4.66943 157.037-4.66943 158.885-5.14469 160.465-6.09521 162.045-7.04573 163.192-8.32894 163.905-9.94482 164.618-11.5607 164.974-13.8182 164.974-16.7173L164.974-37.8188 171.39-37.8188 171.39 0 165.402 0 165.402-5.23975C164.047-3.24365 162.39-1.72282 160.429-0.677246 158.469 0.368327 156.277 0.891113 153.853 0.891113 149.457 0.891113 146.148-0.243571 143.926-2.51294 141.704-4.78231 140.593-8.02002 140.593-12.2261L140.593-37.8188 147.009-37.8188ZM187.829 0 181.413 0 181.413-52.2549 187.829-52.2549ZM228.468 0 221.767 0C221.387-0.807943 221.125-1.46143 220.983-1.96045 220.84-2.45947 220.662-3.36247 220.448-4.66943 218.618-2.72087 216.681-1.30697 214.638-0.427734 212.594 0.451497 210.254 0.891113 207.616 0.891113 205.24 0.891113 203.142 0.433675 201.325-0.481201 199.507-1.39608 198.105-2.67928 197.119-4.33081 196.132-5.98234 195.639-7.87744 195.639-10.0161 195.639-13.2716 196.697-15.8618 198.812-17.7866 200.927-19.7114 204.408-21.0422 209.256-21.7788 214.293-22.5392 217.881-23.264 220.02-23.9531L220.02-24.9512C220.02-27.0661 219.747-28.7354 219.2-29.9592 218.654-31.183 217.781-32.0682 216.58-32.6147 215.38-33.1613 213.759-33.4346 211.715-33.4346 209.149-33.4346 207.123-32.8524 205.638-31.688 204.152-30.5236 203.172-28.6938 202.697-26.1987L196.423-27.1611C197.184-30.987 198.889-33.8623 201.538-35.7871 204.188-37.7119 207.699-38.6743 212.071-38.6743 215.422-38.6743 218.143-38.2525 220.234-37.4089 222.325-36.5653 223.882-35.1871 224.903-33.2742 225.925-31.3612 226.436-28.7889 226.436-25.5571L226.436-11.9766C226.436-9.62402 226.49-7.80615 226.597-6.52295 226.704-5.23975 226.894-4.13477 227.167-3.20801 227.44-2.28125 227.874-1.21191 228.468 0ZM209.541-16.3965C206.998-15.945 205.139-15.1964 203.962-14.1509 202.786-13.1053 202.198-11.727 202.198-10.0161 202.198-8.18636 202.786-6.75464 203.962-5.72095 205.139-4.68726 206.832-4.17041 209.042-4.17041 210.895-4.17041 212.832-4.76449 214.852-5.95264 216.254-6.78434 217.317-7.6814 218.042-8.6438 218.767-9.6062 219.278-10.7765 219.575-12.1548 219.872-13.533 220.02-15.3271 220.02-17.5371L220.02-18.8916C219.45-18.6302 218.161-18.2619 216.153-17.7866 214.145-17.3114 211.941-16.848 209.541-16.3965ZM251.241-32.1157C248.508-32.1157 246.423-31.0642 244.985-28.9612 243.548-26.8582 242.829-23.9294 242.829-20.1748L242.829 0 236.413 0 236.413-37.8188 242.401-37.8188 242.401-32.1157C243.803-34.492 245.229-36.1792 246.679-37.1772 248.128-38.1753 249.875-38.6743 251.918-38.6743 253.059-38.6743 254.122-38.5377 255.108-38.2644 256.095-37.9911 257.099-37.5456 258.12-36.9277L255.91-31.0107C254.532-31.7474 252.976-32.1157 251.241-32.1157Z" fill="#A28C5E" transform="matrix(1 0 0 1 49.6697 99)"/></g></g><text fill="#A28C5E" font-family="Arial Nova,Arial Nova_MSFontService,sans-serif" font-weight="400" font-size="73" transform="matrix(1 0 0 1 1893.82 331)">olecular </text><g clip-path="url(#clip15)" filter="url(#fx4)" transform="translate(1782 321)"><g clip-path="url(#clip16)"><path d="M49.2964-25.7353C49.2964-17.751 47.3894-11.4657 43.5754-6.87939 39.7615-2.29313 33.8742 0 25.9136 0L5.48926 0 5.48926-52.2549 26.0205-52.2549C41.5378-52.2549 49.2964-43.415 49.2964-25.7353ZM38.3892-26.0562C38.3892-30.3573 37.902-33.7673 36.9277-36.2861 35.9534-38.805 34.4504-40.6229 32.4187-41.7397 30.387-42.8566 27.6839-43.415 24.3096-43.415L16.0044-43.415 16.0044-8.83984 24.4521-8.83984C27.9453-8.83984 30.6959-9.38045 32.7039-10.4617 34.7118-11.5429 36.1614-13.3251 37.0525-15.8083 37.9436-18.2916 38.3892-21.7075 38.3892-26.0562Z" fill="#A28C5E" transform="matrix(1 0 0 1 49.5029 99)"/></g></g><text fill="#A28C5E" font-family="Arial Nova,Arial Nova_MSFontService,sans-serif" font-weight="700" font-size="73" transform="matrix(1 0 0 1 1829.66 419)">D</text><g clip-path="url(#clip17)" filter="url(#fx5)" transform="translate(1834 321)"><g clip-path="url(#clip18)"><path d="M15.9687-16.0044C16.7054-13.9608 17.2341-12.4043 17.5549-11.335 17.8757-10.2656 18.25-8.87549 18.6777-7.16455L18.8203-7.16455C19.2956-9.27946 19.6698-10.7825 19.9431-11.6736 20.2164-12.5647 20.8639-14.4123 21.8857-17.2163L29.4067-37.8188 35.9297-37.8188 20.6025 2.81592C19.3669 6.09521 18.1787 8.63192 17.0381 10.426 15.8975 12.2201 14.6737 13.4855 13.3667 14.2222 12.0597 14.9588 10.5033 15.3271 8.69726 15.3271 8.0319 15.3271 7.16455 15.2499 6.09521 15.0955 5.02588 14.941 4.111 14.7806 3.35059 14.6143L4.66943 9.19629C5.66748 9.5765 6.62988 9.7666 7.55664 9.7666 8.93489 9.7666 10.0696 9.42204 10.9607 8.73291 11.8518 8.04378 12.5766 7.12296 13.135 5.97046 13.6934 4.81795 14.2103 3.61198 14.6855 2.35254 15.1608 1.0931 15.446 0.332682 15.541 0.0712891L1.17627-37.8188 8.09131-37.8188ZM66.0378 0 66.0378-24.7373C66.0378-27.4938 65.3486-29.585 63.9704-31.0107 62.5921-32.4365 60.6435-33.1494 58.1247-33.1494 54.9404-33.1494 52.4631-32.187 50.6928-30.2622 48.9224-28.3374 48.0373-25.272 48.0373-21.0659L48.0373 0 41.6213 0 41.6213-37.8188 47.6095-37.8188 47.6095-32.5435C48.869-34.4445 50.5027-35.9416 52.5107-37.0347 54.5186-38.1278 56.7464-38.6743 59.194-38.6743 63.5664-38.6743 66.8695-37.5456 69.1032-35.2881 71.3369-33.0306 72.4538-29.7988 72.4538-25.5928L72.4538 0ZM112.739 0 106.038 0C105.657-0.807943 105.396-1.46143 105.253-1.96045 105.111-2.45947 104.933-3.36247 104.719-4.66943 102.889-2.72087 100.952-1.30697 98.9087-0.427734 96.8651 0.451497 94.5244 0.891113 91.8867 0.891113 89.5104 0.891113 87.4133 0.433675 85.5955-0.481201 83.7776-1.39608 82.3756-2.67928 81.3894-4.33081 80.4032-5.98234 79.9102-7.87744 79.9102-10.0161 79.9102-13.2716 80.9676-15.8618 83.0825-17.7866 85.1974-19.7114 88.6787-21.0422 93.5264-21.7788 98.5641-22.5392 102.152-23.264 104.291-23.9531L104.291-24.9512C104.291-27.0661 104.018-28.7354 103.471-29.9592 102.925-31.183 102.051-32.0682 100.851-32.6147 99.6513-33.1613 98.0294-33.4346 95.9858-33.4346 93.4194-33.4346 91.3936-32.8524 89.9084-31.688 88.4233-30.5236 87.443-28.6938 86.9678-26.1987L80.6943-27.1611C81.4548-30.987 83.1597-33.8623 85.8093-35.7871 88.4589-37.7119 91.9699-38.6743 96.3423-38.6743 99.6929-38.6743 102.414-38.2525 104.505-37.4089 106.596-36.5653 108.153-35.1871 109.174-33.2742 110.196-31.3612 110.707-28.7889 110.707-25.5571L110.707-11.9766C110.707-9.62402 110.76-7.80615 110.867-6.52295 110.974-5.23975 111.164-4.13477 111.438-3.20801 111.711-2.28125 112.145-1.21191 112.739 0ZM93.8115-16.3965C91.2689-15.945 89.4094-15.1964 88.2332-14.1509 87.0569-13.1053 86.4688-11.727 86.4688-10.0161 86.4688-8.18636 87.0569-6.75464 88.2332-5.72095 89.4094-4.68726 91.1025-4.17041 93.3125-4.17041 95.166-4.17041 97.1027-4.76449 99.1226-5.95264 100.525-6.78434 101.588-7.6814 102.313-8.6438 103.038-9.6062 103.548-10.7765 103.845-12.1548 104.142-13.533 104.291-15.3271 104.291-17.5371L104.291-18.8916C103.721-18.6302 102.432-18.2619 100.424-17.7866 98.4156-17.3114 96.2116-16.848 93.8115-16.3965ZM159.75-38.6743C163.79-38.6743 166.855-37.6169 168.946-35.5019 171.038-33.387 172.083-30.2978 172.083-26.2344L172.083 0 165.667 0 165.667-24.2739C165.667-27.4819 165.097-29.7632 163.956-31.1177 162.816-32.4722 161.069-33.1494 158.716-33.1494 157.006-33.1494 155.461-32.7217 154.083-31.8662 152.704-31.0107 151.611-29.68 150.803-27.874 149.995-26.068 149.591-23.8105 149.591-21.1016L149.591 0 143.175 0 143.175-24.8442C143.175-27.672 142.593-29.7632 141.429-31.1177 140.264-32.4722 138.53-33.1494 136.225-33.1494 134.561-33.1494 133.041-32.7454 131.662-31.9375 130.284-31.1296 129.179-29.8285 128.347-28.0344 127.516-26.2403 127.1-23.9294 127.1-21.1016L127.1 0 120.684 0 120.684-37.8188 126.672-37.8188 126.672-32.5435C129.333-36.6307 132.874-38.6743 137.294-38.6743 140.312-38.6743 142.748-38.1218 144.601-37.0168 146.455-35.9119 147.809-34.2544 148.665-32.0444 150.233-34.5158 151.885-36.2386 153.619-37.2129 155.354-38.1872 157.398-38.6743 159.75-38.6743ZM188.402-44.9834 181.986-44.9834 181.986-52.2549 188.402-52.2549ZM188.402 0 181.986 0 181.986-37.8188 188.402-37.8188ZM214.427-33.3989C210.696-33.3989 207.82-32.1395 205.801-29.6206 203.781-27.1017 202.771-23.5492 202.771-18.9629 202.771-16.1113 203.222-13.5865 204.125-11.3884 205.028-9.19035 206.335-7.47347 208.046-6.23779 209.757-5.00212 211.765-4.38428 214.07-4.38428 216.803-4.38428 219.048-5.22786 220.807-6.91504 222.565-8.60221 223.659-10.9191 224.086-13.8657L230.431-12.9033C230.027-10.0993 229.053-7.65763 227.508-5.57837 225.964-3.4991 224.003-1.90104 221.627-0.78418 219.25 0.332682 216.648 0.891113 213.821 0.891113 210.327 0.891113 207.25 0.0891112 204.589-1.51489 201.927-3.1189 199.866-5.40609 198.404-8.37646 196.943-11.3468 196.212-14.84 196.212-18.856 196.212-23.0858 196.943-26.6859 198.404-29.6562 199.866-32.6266 201.939-34.8722 204.624-36.3931 207.31-37.9139 210.482-38.6743 214.141-38.6743 216.827-38.6743 219.274-38.205 221.484-37.2664 223.694-36.3277 225.518-34.9613 226.956-33.1672 228.393-31.3731 229.338-29.2285 229.789-26.7334L223.587-25.8066C222.993-28.2067 221.888-30.0721 220.272-31.4028 218.656-32.7336 216.708-33.3989 214.427-33.3989ZM248.57-33.4346C246.36-33.4346 244.608-32.989 243.313-32.0979 242.018-31.2068 241.37-30.0246 241.37-28.5513 241.37-27.4344 241.643-26.5195 242.19-25.8066 242.736-25.0937 243.616-24.5056 244.828-24.0422 246.04-23.5789 247.727-23.1689 249.889-22.8125 253.168-22.2659 255.848-21.5412 257.927-20.6382 260.006-19.7352 261.586-18.5173 262.668-16.9846 263.749-15.4519 264.29-13.4974 264.29-11.1211 264.29-8.86361 263.69-6.8081 262.49-4.95459 261.289-3.10107 259.59-1.66341 257.392-0.641602 255.194 0.380208 252.658 0.891113 249.782 0.891113 240.776 0.891113 235.584-3.1486 234.206-11.228L240.586-12.2617C241.014-9.60026 241.97-7.62199 243.455-6.3269 244.941-5.03182 247.026-4.38428 249.711-4.38428 252.277-4.38428 254.256-4.93083 255.646-6.02393 257.036-7.11702 257.731-8.56657 257.731-10.3726 257.731-12.1073 256.941-13.4499 255.361-14.4004 253.78-15.3509 251.576-16.04 248.749-16.4678 244.281-17.1569 240.901-18.3748 238.608-20.1213 236.315-21.8679 235.168-24.4165 235.168-27.7671 235.168-29.8582 235.72-31.7296 236.825-33.3811 237.93-35.0326 239.493-36.3277 241.513-37.2664 243.533-38.205 245.885-38.6743 248.57-38.6743 252.705-38.6743 255.99-37.7951 258.426-36.0366 260.862-34.2782 262.377-31.6642 262.971-28.1948L256.697-27.2324C256.388-29.1572 255.527-30.6721 254.113-31.7771 252.699-32.8821 250.852-33.4346 248.57-33.4346Z" fill="#A28C5E" transform="matrix(1 0 0 1 50.2113 99)"/></g></g><text fill="#A28C5E" font-family="Arial Nova,Arial Nova_MSFontService,sans-serif" font-weight="400" font-size="73" transform="matrix(1 0 0 1 1882.37 419)">ynamics</text><rect x="1602.5" y="319.5" width="47.0001" height="46.0001" stroke="#013156" stroke-width="6.875" stroke-miterlimit="8" fill="#FFFFFF"/><rect x="1708.5" y="248.5" width="46.0001" height="47.0001" stroke="#013156" stroke-width="6.875" stroke-miterlimit="8" fill="#FFFFFF"/><path d="M0 0 59.2971 69.6096" stroke="#013156" stroke-width="6.875" stroke-miterlimit="8" fill="none" fill-rule="evenodd" transform="matrix(1 0 0 -1 1649.5 342.11)"/><path d="M1813.8 342.11 1754.5 272.5" stroke="#013156" stroke-width="6.875" stroke-miterlimit="8" fill="none" fill-rule="evenodd"/><path d="M1602.8 342.11 1543.5 272.5" stroke="#013156" stroke-width="6.875" stroke-miterlimit="8" fill="none" fill-rule="evenodd"/></g></svg>
